<svg xmlns="http://www.w3.org/2000/svg" xmlns:xlink="http://www.w3.org/1999/xlink" width="500" zoomAndPan="magnify" viewBox="0 0 375 374.999991" height="500" preserveAspectRatio="xMidYMid meet" version="1.0"><defs><g/><clipPath id="c2da6721d8"><path d="M 144.910156 125.386719 L 227.113281 125.386719 L 227.113281 281.449219 L 144.910156 281.449219 Z M 144.910156 125.386719 " clip-rule="nonzero"/></clipPath><clipPath id="2f8d5e8a92"><path d="M 138.820312 119.035156 L 233.320312 119.035156 L 233.320312 289 L 138.820312 289 Z M 138.820312 119.035156 " clip-rule="nonzero"/></clipPath><clipPath id="a8e62f2c04"><path d="M 179 92 L 221.347656 92 L 221.347656 138 L 179 138 Z M 179 92 " clip-rule="nonzero"/></clipPath><clipPath id="665de7d975"><path d="M 100.597656 85.90625 L 208 85.90625 L 208 126 L 100.597656 126 Z M 100.597656 85.90625 " clip-rule="nonzero"/></clipPath><clipPath id="ed8b5d74e0"><path d="M 190.105469 174.054688 L 259.410156 174.054688 L 259.410156 217.753906 L 190.105469 217.753906 Z M 190.105469 174.054688 " clip-rule="nonzero"/></clipPath><clipPath id="0b831311c3"><path d="M 190 149.292969 L 241 149.292969 L 241 218 L 190 218 Z M 190 149.292969 " clip-rule="nonzero"/></clipPath><clipPath id="9988f5ab36"><path d="M 112.535156 174 L 182 174 L 182 218 L 112.535156 218 Z M 112.535156 174 " clip-rule="nonzero"/></clipPath><clipPath id="1cc12b3446"><path d="M 131 149.292969 L 182 149.292969 L 182 218 L 131 218 Z M 131 149.292969 " clip-rule="nonzero"/></clipPath><clipPath id="e285f03db6"><path d="M 176.703125 215.714844 L 196.222656 215.714844 L 196.222656 225.707031 L 176.703125 225.707031 Z M 176.703125 215.714844 " clip-rule="nonzero"/></clipPath><clipPath id="b01c54efcb"><path d="M 173.246094 196.378906 L 198.777344 196.378906 L 198.777344 221.910156 L 173.246094 221.910156 Z M 173.246094 196.378906 " clip-rule="nonzero"/></clipPath><clipPath id="360e8edbb4"><path d="M 186.011719 196.378906 C 178.960938 196.378906 173.246094 202.09375 173.246094 209.144531 C 173.246094 216.195312 178.960938 221.910156 186.011719 221.910156 C 193.0625 221.910156 198.777344 216.195312 198.777344 209.144531 C 198.777344 202.09375 193.0625 196.378906 186.011719 196.378906 Z M 186.011719 196.378906 " clip-rule="nonzero"/></clipPath></defs><g clip-path="url(#c2da6721d8)"><path fill="#483d8b" d="M 144.910156 125.386719 L 227.113281 125.386719 L 227.113281 281.449219 L 144.910156 281.449219 Z M 144.910156 125.386719 " fill-opacity="1" fill-rule="nonzero"/></g><g clip-path="url(#2f8d5e8a92)"><path fill="#87ceeb" d="M 225.101562 253.941406 L 146.910156 253.941406 L 146.910156 139.347656 C 146.910156 132.660156 152.351562 127.214844 159.042969 127.214844 L 212.96875 127.214844 C 219.660156 127.214844 225.101562 132.660156 225.101562 139.347656 Z M 225.101562 268.773438 C 225.101562 275.464844 219.660156 280.90625 212.96875 280.90625 L 159.042969 280.90625 C 152.351562 280.90625 146.910156 275.464844 146.910156 268.773438 L 146.910156 262.03125 L 225.101562 262.03125 Z M 212.96875 119.128906 L 159.042969 119.128906 C 147.890625 119.128906 138.820312 128.199219 138.820312 139.347656 L 138.820312 268.773438 C 138.820312 279.921875 147.890625 288.996094 159.042969 288.996094 L 212.96875 288.996094 C 224.121094 288.996094 233.191406 279.921875 233.191406 268.773438 L 233.191406 139.347656 C 233.191406 128.199219 224.121094 119.128906 212.96875 119.128906 " fill-opacity="1" fill-rule="nonzero"/></g><path fill="#87ceeb" d="M 196.792969 135.304688 L 175.222656 135.304688 C 172.988281 135.304688 171.175781 137.113281 171.175781 139.347656 C 171.175781 141.582031 172.988281 143.394531 175.222656 143.394531 L 196.792969 143.394531 C 199.027344 143.394531 200.835938 141.582031 200.835938 139.347656 C 200.835938 137.113281 199.027344 135.304688 196.792969 135.304688 " fill-opacity="1" fill-rule="nonzero"/><g clip-path="url(#a8e62f2c04)"><path fill="#483d8b" d="M 179.496094 93.625 C 179.601562 93.179688 179.703125 92.707031 179.886719 92.316406 L 179.886719 92.339844 C 179.886719 92.339844 180.382812 92.601562 181.246094 93.046875 C 181.351562 93.101562 181.484375 93.152344 181.585938 93.230469 C 181.71875 93.308594 181.824219 93.363281 181.953125 93.441406 C 182.214844 93.597656 182.503906 93.726562 182.789062 93.910156 C 182.949219 93.988281 183.105469 94.066406 183.261719 94.171875 C 183.417969 94.277344 183.574219 94.355469 183.730469 94.460938 C 184.070312 94.644531 184.414062 94.851562 184.777344 95.0625 C 186.214844 95.949219 187.863281 96.996094 189.566406 98.226562 C 191.265625 99.457031 193.042969 100.839844 194.742188 102.28125 C 196.441406 103.746094 198.066406 105.261719 199.554688 106.753906 C 201.019531 108.242188 202.328125 109.707031 203.425781 110.964844 C 203.6875 111.277344 203.949219 111.589844 204.210938 111.878906 C 204.339844 112.035156 204.445312 112.167969 204.578125 112.296875 C 204.679688 112.429688 204.8125 112.585938 204.917969 112.714844 C 205.335938 113.238281 205.726562 113.710938 206.015625 114.101562 C 206.304688 114.492188 206.539062 114.808594 206.695312 114.992188 C 206.851562 115.199219 206.929688 115.304688 206.929688 115.304688 C 207.347656 115.070312 207.820312 115.015625 208.289062 115.121094 C 208.527344 115.175781 208.734375 115.253906 208.945312 115.382812 C 209.152344 115.515625 209.335938 115.671875 209.46875 115.878906 C 209.46875 115.878906 209.625 116.089844 209.832031 116.402344 C 209.9375 116.558594 210.070312 116.742188 210.199219 116.953125 C 210.277344 117.058594 210.332031 117.160156 210.410156 117.265625 C 210.488281 117.371094 210.539062 117.476562 210.617188 117.582031 C 210.90625 118.023438 211.195312 118.441406 211.402344 118.785156 C 211.613281 119.125 211.742188 119.332031 211.742188 119.332031 C 211.796875 119.410156 211.820312 119.488281 211.847656 119.542969 C 213.023438 119.828125 214.070312 120.5625 214.960938 121.53125 C 215.195312 121.765625 215.40625 122.027344 215.613281 122.3125 C 215.824219 122.574219 216.03125 122.863281 216.214844 123.152344 C 216.398438 123.4375 216.582031 123.753906 216.765625 124.066406 C 216.84375 124.222656 216.949219 124.378906 217.027344 124.539062 C 217.105469 124.695312 217.183594 124.851562 217.289062 125.007812 C 217.445312 125.320312 217.628906 125.660156 217.785156 125.976562 L 217.914062 126.210938 L 218.019531 126.445312 C 218.097656 126.601562 218.175781 126.785156 218.253906 126.945312 C 218.414062 127.285156 218.542969 127.597656 218.699219 127.910156 C 218.832031 128.226562 218.988281 128.566406 219.117188 128.878906 C 219.25 129.191406 219.40625 129.507812 219.535156 129.792969 C 219.667969 130.082031 219.796875 130.394531 219.957031 130.65625 C 220.113281 130.917969 220.242188 131.207031 220.375 131.46875 C 220.53125 131.730469 220.660156 131.964844 220.820312 132.199219 C 221.238281 132.828125 221.289062 133.273438 221.105469 133.402344 C 220.921875 133.535156 220.558594 133.324219 220.136719 132.699219 C 220.007812 132.515625 219.878906 132.277344 219.773438 131.992188 C 219.640625 131.703125 219.511719 131.414062 219.355469 131.074219 C 219.222656 130.734375 219.066406 130.371094 218.933594 129.976562 C 218.777344 129.609375 218.648438 129.21875 218.492188 128.828125 C 218.414062 128.617188 218.332031 128.433594 218.28125 128.25 C 218.203125 128.066406 218.125 127.859375 218.046875 127.675781 C 217.890625 127.308594 217.757812 126.945312 217.601562 126.578125 C 217.3125 125.898438 217.027344 125.320312 216.789062 124.957031 C 216.632812 124.71875 216.476562 124.484375 216.320312 124.25 C 216.164062 124.015625 216.007812 123.804688 215.824219 123.597656 C 215.507812 123.175781 215.144531 122.785156 214.75 122.445312 C 213.992188 121.765625 213.128906 121.292969 212.058594 121.164062 C 212.761719 121.632812 213.496094 122.050781 214.203125 122.550781 C 214.542969 122.8125 214.882812 123.074219 215.195312 123.359375 C 215.507812 123.648438 215.796875 123.988281 216.058594 124.328125 C 216.398438 124.773438 216.765625 125.425781 217.128906 126.183594 C 217.3125 126.550781 217.496094 126.945312 217.679688 127.363281 C 217.757812 127.570312 217.863281 127.78125 217.941406 127.988281 C 217.992188 128.09375 218.019531 128.199219 218.074219 128.304688 C 218.125 128.40625 218.152344 128.511719 218.203125 128.617188 C 218.359375 129.035156 218.542969 129.453125 218.699219 129.871094 C 218.753906 129.976562 218.777344 130.082031 218.832031 130.1875 C 218.855469 130.292969 218.910156 130.394531 218.933594 130.5 C 219.015625 130.710938 219.09375 130.894531 219.171875 131.101562 C 219.25 131.285156 219.328125 131.46875 219.378906 131.652344 C 219.457031 131.835938 219.535156 131.992188 219.589844 132.175781 C 219.71875 132.515625 219.851562 132.800781 219.980469 133.0625 C 220.609375 134.320312 219.433594 133.875 219.039062 133.0625 C 218.988281 132.984375 218.832031 132.722656 218.648438 132.460938 C 218.492188 132.199219 218.308594 131.964844 218.253906 131.886719 C 218.28125 132.042969 218.332031 132.199219 218.359375 132.355469 C 218.4375 132.800781 217.96875 132.539062 217.730469 132.253906 C 217.890625 132.617188 218.074219 133.011719 218.253906 133.351562 C 218.4375 133.71875 218.675781 134.058594 218.910156 134.398438 C 219.277344 134.894531 219.25 135.261719 219.09375 135.363281 C 218.910156 135.496094 218.570312 135.363281 218.203125 134.894531 C 218.152344 134.816406 218.074219 134.710938 218.019531 134.605469 C 217.941406 134.5 217.890625 134.398438 217.8125 134.292969 C 217.679688 134.058594 217.523438 133.820312 217.390625 133.558594 C 217.3125 133.429688 217.261719 133.300781 217.183594 133.140625 C 217.15625 133.0625 217.105469 133.011719 217.078125 132.933594 C 217.050781 132.855469 217 132.800781 216.972656 132.722656 C 216.816406 132.4375 216.6875 132.148438 216.554688 131.835938 C 216.292969 131.234375 215.980469 130.65625 215.746094 130.082031 C 215.507812 129.53125 215.273438 129.035156 215.117188 128.644531 C 215.011719 128.382812 214.90625 128.121094 214.777344 127.859375 C 214.671875 127.597656 214.542969 127.363281 214.410156 127.101562 C 214.148438 126.601562 213.863281 126.132812 213.441406 125.714844 C 213.234375 125.503906 213.023438 125.296875 212.789062 125.085938 C 213 125.398438 213.207031 125.714844 213.417969 126.054688 L 213.574219 126.289062 C 213.625 126.367188 213.679688 126.445312 213.703125 126.550781 C 213.808594 126.707031 213.886719 126.890625 213.992188 127.046875 C 214.203125 127.441406 214.488281 127.988281 214.777344 128.617188 C 214.933594 128.929688 215.089844 129.269531 215.246094 129.609375 C 215.40625 129.949219 215.5625 130.316406 215.71875 130.65625 C 216.058594 131.363281 216.371094 132.070312 216.6875 132.671875 C 216.84375 132.984375 217 133.273438 217.128906 133.535156 C 217.261719 133.796875 217.417969 134.003906 217.550781 134.1875 C 217.679688 134.371094 217.757812 134.527344 217.757812 134.632812 C 217.785156 134.761719 217.757812 134.84375 217.679688 134.867188 C 217.574219 134.945312 217.3125 134.84375 217.050781 134.5 C 216.894531 134.265625 216.710938 134.003906 216.527344 133.691406 C 216.449219 133.535156 216.347656 133.378906 216.269531 133.21875 C 216.164062 133.0625 216.085938 132.878906 215.980469 132.699219 C 215.796875 132.332031 215.585938 131.964844 215.40625 131.574219 C 215.195312 131.179688 215.011719 130.789062 214.804688 130.394531 C 214.621094 130.003906 214.410156 129.585938 214.203125 129.191406 C 214.097656 129.007812 214.019531 128.800781 213.914062 128.617188 C 213.863281 128.511719 213.808594 128.433594 213.78125 128.328125 C 213.730469 128.226562 213.679688 128.148438 213.652344 128.066406 C 213.46875 127.703125 213.285156 127.363281 213.128906 127.046875 C 213.050781 126.890625 212.972656 126.734375 212.894531 126.601562 C 212.816406 126.472656 212.738281 126.34375 212.683594 126.210938 C 212.761719 126.367188 212.839844 126.5 212.921875 126.65625 C 213.050781 126.890625 213.179688 127.179688 213.339844 127.492188 C 213.496094 127.804688 213.652344 128.148438 213.808594 128.511719 C 214.125 129.246094 214.488281 130.03125 214.855469 130.839844 C 214.933594 131.050781 215.039062 131.234375 215.117188 131.441406 C 215.167969 131.546875 215.222656 131.625 215.246094 131.730469 C 215.300781 131.835938 215.328125 131.914062 215.378906 132.015625 C 215.5625 132.410156 215.746094 132.777344 215.925781 133.117188 C 216.03125 133.300781 216.109375 133.457031 216.214844 133.613281 C 216.292969 133.769531 216.398438 133.925781 216.476562 134.058594 C 216.660156 134.34375 216.84375 134.605469 217.027344 134.789062 C 217.367188 135.15625 217.417969 135.652344 217.3125 135.941406 C 217.210938 136.226562 216.894531 136.304688 216.449219 135.808594 C 216.058594 135.363281 215.640625 134.738281 215.246094 134.058594 C 215.066406 133.71875 214.855469 133.351562 214.644531 132.957031 C 214.542969 132.777344 214.464844 132.566406 214.359375 132.382812 C 214.304688 132.277344 214.253906 132.199219 214.226562 132.097656 C 214.175781 131.992188 214.125 131.914062 214.070312 131.808594 C 213.886719 131.414062 213.679688 131.023438 213.523438 130.632812 C 213.339844 130.238281 213.15625 129.871094 213 129.507812 C 212.921875 129.324219 212.839844 129.140625 212.761719 128.984375 C 212.683594 128.800781 212.605469 128.644531 212.527344 128.488281 C 212.371094 128.171875 212.214844 127.859375 212.109375 127.597656 C 212.03125 127.441406 211.976562 127.308594 211.898438 127.152344 C 211.820312 127.023438 211.742188 126.863281 211.664062 126.734375 C 211.507812 126.445312 211.375 126.160156 211.21875 125.898438 C 211.089844 125.609375 210.933594 125.347656 210.777344 125.058594 C 210.617188 124.773438 210.488281 124.484375 210.355469 124.222656 C 211.035156 126.082031 212.082031 128.328125 213.179688 130.527344 C 213.441406 131.074219 213.730469 131.625 214.019531 132.175781 C 214.28125 132.722656 214.566406 133.246094 214.855469 133.769531 C 215.117188 134.292969 215.378906 134.789062 215.667969 135.261719 C 215.796875 135.496094 215.929688 135.730469 216.058594 135.964844 C 216.1875 136.203125 216.320312 136.410156 216.449219 136.621094 C 216.789062 137.195312 216.214844 136.933594 216.007812 136.59375 C 215.796875 136.226562 215.585938 135.886719 215.378906 135.523438 C 215.167969 135.15625 214.960938 134.789062 214.75 134.421875 C 214.933594 134.867188 215.066406 135.207031 215.195312 135.523438 C 215.273438 135.679688 215.328125 135.835938 215.40625 136.019531 C 215.484375 136.203125 215.585938 136.386719 215.71875 136.59375 C 216.554688 138.03125 215.222656 137.25 214.75 136.464844 C 214.699219 136.359375 214.621094 136.253906 214.566406 136.148438 C 214.542969 136.097656 214.515625 136.046875 214.488281 135.992188 C 214.464844 135.941406 214.4375 135.886719 214.382812 135.808594 C 214.253906 135.574219 214.125 135.3125 214.019531 135.050781 C 213.886719 134.789062 213.78125 134.527344 213.652344 134.242188 C 213.523438 133.953125 213.390625 133.691406 213.261719 133.402344 C 213.207031 133.273438 213.128906 133.117188 213.078125 132.984375 C 213.050781 132.90625 213.023438 132.855469 212.972656 132.777344 C 212.945312 132.699219 212.921875 132.644531 212.867188 132.566406 C 212.738281 132.277344 212.605469 132.015625 212.5 131.753906 C 212.449219 131.625 212.371094 131.496094 212.320312 131.363281 C 212.265625 131.234375 212.214844 131.101562 212.136719 130.996094 C 212.03125 130.761719 211.898438 130.527344 211.796875 130.316406 C 211.402344 129.507812 210.878906 128.746094 210.410156 128.015625 C 210.148438 127.648438 209.886719 127.285156 209.652344 126.890625 L 209.285156 126.316406 C 209.179688 126.132812 209.050781 125.921875 208.945312 125.742188 C 208.867188 125.582031 208.789062 125.425781 208.710938 125.269531 C 208.683594 125.191406 208.628906 125.113281 208.605469 125.035156 L 208.5 124.796875 C 208.371094 124.484375 208.238281 124.144531 208.109375 123.804688 C 208.054688 123.648438 208.003906 123.464844 207.949219 123.28125 C 207.898438 123.097656 207.847656 122.941406 207.820312 122.757812 C 207.742188 122.417969 207.664062 122.050781 207.609375 121.710938 C 207.609375 121.710938 207.507812 121.53125 207.296875 121.242188 C 207.113281 120.953125 206.851562 120.589844 206.617188 120.195312 C 206.484375 120.011719 206.355469 119.828125 206.25 119.644531 C 206.121094 119.464844 206.015625 119.304688 205.910156 119.175781 C 205.726562 118.886719 205.597656 118.703125 205.597656 118.703125 C 205.464844 118.496094 205.363281 118.3125 205.308594 118.078125 C 205.257812 117.867188 205.230469 117.632812 205.257812 117.398438 C 205.308594 116.953125 205.519531 116.507812 205.859375 116.167969 C 205.859375 116.167969 205.78125 116.0625 205.625 115.855469 C 205.464844 115.644531 205.230469 115.355469 204.941406 114.964844 C 204.65625 114.574219 204.289062 114.128906 203.871094 113.605469 C 203.765625 113.472656 203.660156 113.34375 203.558594 113.210938 C 203.453125 113.082031 203.320312 112.925781 203.21875 112.792969 C 202.980469 112.507812 202.71875 112.21875 202.457031 111.90625 C 201.386719 110.675781 200.128906 109.238281 198.691406 107.796875 C 197.253906 106.335938 195.660156 104.84375 194.011719 103.429688 C 193.59375 103.089844 193.171875 102.726562 192.753906 102.386719 C 192.546875 102.203125 192.335938 102.042969 192.128906 101.863281 C 191.917969 101.679688 191.710938 101.523438 191.5 101.363281 C 191.082031 101.023438 190.664062 100.710938 190.246094 100.398438 C 189.824219 100.082031 189.40625 99.769531 188.988281 99.480469 C 187.316406 98.277344 185.71875 97.230469 184.332031 96.371094 C 183.992188 96.160156 183.652344 95.949219 183.3125 95.769531 C 183.15625 95.664062 183 95.585938 182.84375 95.480469 C 182.765625 95.429688 182.6875 95.402344 182.609375 95.347656 C 182.527344 95.296875 182.449219 95.269531 182.398438 95.21875 C 181.824219 94.90625 181.300781 94.617188 180.882812 94.382812 C 179.992188 93.882812 179.496094 93.625 179.496094 93.625 Z M 209.414062 123.308594 C 209.46875 123.59375 209.519531 123.882812 209.597656 124.171875 C 209.675781 124.457031 209.753906 124.746094 209.832031 125.035156 C 209.9375 125.320312 210.042969 125.582031 210.148438 125.871094 L 210.226562 126.082031 C 210.253906 126.160156 210.277344 126.210938 210.304688 126.289062 C 210.355469 126.421875 210.433594 126.550781 210.515625 126.683594 C 210.671875 126.96875 210.828125 127.257812 211.011719 127.546875 C 211.195312 127.832031 211.351562 128.09375 211.558594 128.382812 C 211.457031 128.171875 211.351562 127.964844 211.273438 127.753906 L 211.117188 127.441406 L 210.957031 127.125 C 210.777344 126.707031 210.59375 126.289062 210.410156 125.871094 C 210.226562 125.453125 210.042969 125.035156 209.886719 124.617188 L 209.753906 124.300781 L 209.625 123.988281 C 209.574219 123.726562 209.492188 123.515625 209.414062 123.308594 Z M 215.195312 126.261719 C 215.117188 126.082031 215.039062 125.898438 214.933594 125.714844 C 214.855469 125.53125 214.75 125.347656 214.644531 125.191406 C 214.359375 124.773438 214.019531 124.484375 213.679688 124.25 C 213.3125 124.015625 212.921875 123.804688 212.527344 123.542969 C 212.320312 123.414062 212.136719 123.253906 211.953125 123.097656 C 211.769531 122.941406 211.585938 122.785156 211.402344 122.628906 C 211.796875 123.074219 212.238281 123.492188 212.710938 123.882812 C 212.816406 123.988281 212.945312 124.09375 213.050781 124.195312 C 213.15625 124.300781 213.285156 124.40625 213.390625 124.511719 C 213.625 124.71875 213.835938 124.929688 214.042969 125.164062 C 214.203125 125.347656 214.382812 125.558594 214.542969 125.792969 C 214.699219 126.027344 214.882812 126.289062 215.039062 126.578125 C 215.222656 126.863281 215.378906 127.152344 215.5625 127.464844 C 215.71875 127.78125 215.875 128.09375 216.03125 128.433594 C 216.109375 128.589844 216.1875 128.746094 216.269531 128.929688 C 216.292969 129.007812 216.347656 129.089844 216.371094 129.167969 C 216.398438 129.246094 216.449219 129.324219 216.476562 129.402344 C 216.609375 129.714844 216.738281 130.054688 216.871094 130.34375 C 217.128906 130.945312 217.339844 131.519531 217.523438 131.9375 C 217.496094 131.78125 217.445312 131.574219 217.367188 131.363281 C 217.339844 131.257812 217.289062 131.128906 217.261719 131.023438 C 217.234375 130.972656 217.210938 130.894531 217.210938 130.839844 C 217.183594 130.789062 217.15625 130.710938 217.128906 130.65625 C 216.949219 130.160156 216.710938 129.609375 216.476562 129.0625 C 216.242188 128.511719 215.980469 127.964844 215.746094 127.492188 C 215.5625 126.996094 215.351562 126.578125 215.195312 126.261719 Z M 211.457031 121.765625 C 211.429688 121.792969 211.402344 121.816406 211.378906 121.84375 C 211.585938 122.027344 211.796875 122.183594 212.003906 122.339844 C 212.214844 122.496094 212.421875 122.652344 212.632812 122.785156 C 213.050781 123.074219 213.441406 123.359375 213.835938 123.675781 C 213.941406 123.753906 214.019531 123.832031 214.125 123.910156 C 214.226562 123.988281 214.304688 124.066406 214.382812 124.144531 C 214.566406 124.300781 214.75 124.484375 214.90625 124.695312 C 215.066406 124.878906 215.246094 125.085938 215.378906 125.320312 C 215.535156 125.558594 215.667969 125.792969 215.796875 126.054688 C 215.902344 126.261719 216.007812 126.472656 216.109375 126.707031 C 216.214844 126.917969 216.320312 127.152344 216.425781 127.363281 L 216.347656 127.074219 L 216.242188 126.8125 C 216.164062 126.628906 216.109375 126.445312 216.03125 126.261719 C 215.875 125.898438 215.746094 125.53125 215.5625 125.191406 C 215.351562 124.796875 215.089844 124.457031 214.804688 124.117188 C 214.644531 123.960938 214.488281 123.804688 214.332031 123.648438 C 214.175781 123.492188 213.992188 123.359375 213.808594 123.230469 C 213.441406 122.96875 213.078125 122.707031 212.683594 122.445312 C 212.214844 122.234375 211.820312 122 211.457031 121.765625 Z M 211.457031 121.765625 " fill-opacity="1" fill-rule="nonzero"/></g><g clip-path="url(#665de7d975)"><path fill="#87ceeb" d="M 207.113281 85.90625 C 207.246094 86.796875 207.480469 87.503906 207.007812 87.765625 L 194.558594 94.929688 L 193.332031 95.636719 L 192.519531 96.109375 C 192.074219 96.289062 191.683594 96.550781 191.289062 96.839844 L 184.175781 100.921875 L 128.023438 121.058594 L 102.027344 125.398438 C 101.503906 125.480469 101.214844 124.796875 100.773438 124.015625 L 148.503906 89.960938 L 148.503906 89.933594 L 148.554688 89.933594 L 148.605469 89.910156 L 148.605469 89.933594 Z M 207.113281 85.90625 " fill-opacity="1" fill-rule="nonzero"/></g><path fill="#483d8b" d="M 183.128906 97.441406 L 185.929688 106.777344 L 189.304688 117.972656 L 175.9375 120.273438 C 165.660156 122.027344 155.746094 125.582031 146.699219 130.761719 L 134.640625 137.769531 L 128.441406 122.078125 L 128.023438 121.03125 L 126.742188 117.84375 L 133.046875 113.945312 C 145.914062 105.863281 160.324219 100.605469 175.390625 98.515625 Z M 183.128906 97.441406 " fill-opacity="1" fill-rule="nonzero"/><g clip-path="url(#ed8b5d74e0)"><path fill="#87ceeb" d="M 259.410156 174.128906 L 259.410156 187.773438 C 259.410156 187.773438 217.933594 185.863281 190.371094 217.519531 C 190.371094 217.519531 205.925781 180.679688 259.410156 174.128906 " fill-opacity="1" fill-rule="nonzero"/></g><path fill="#87ceeb" d="M 252.503906 164.710938 L 254.453125 178.214844 C 254.453125 178.214844 213.125 182.25 190.371094 217.519531 C 190.371094 217.519531 200.5 178.835938 252.503906 164.710938 " fill-opacity="1" fill-rule="nonzero"/><path fill="#87ceeb" d="M 244.320312 156.371094 L 248.179688 169.460938 C 248.179688 169.460938 207.851562 179.359375 190.371094 217.519531 C 190.371094 217.519531 194.871094 177.785156 244.320312 156.371094 " fill-opacity="1" fill-rule="nonzero"/><g clip-path="url(#0b831311c3)"><path fill="#87ceeb" d="M 235.027344 149.289062 L 240.71875 161.691406 C 240.71875 161.691406 202.21875 177.253906 190.371094 217.519531 C 190.371094 217.519531 189.144531 177.546875 235.027344 149.289062 " fill-opacity="1" fill-rule="nonzero"/></g><g clip-path="url(#9988f5ab36)"><path fill="#87ceeb" d="M 112.609375 174.128906 L 112.609375 187.773438 C 112.609375 187.773438 154.089844 185.863281 181.648438 217.519531 C 181.648438 217.519531 166.09375 180.679688 112.609375 174.128906 " fill-opacity="1" fill-rule="nonzero"/></g><path fill="#87ceeb" d="M 119.519531 164.710938 L 117.570312 178.214844 C 117.570312 178.214844 158.894531 182.25 181.648438 217.519531 C 181.648438 217.519531 171.519531 178.835938 119.519531 164.710938 " fill-opacity="1" fill-rule="nonzero"/><path fill="#87ceeb" d="M 127.703125 156.371094 L 123.84375 169.460938 C 123.84375 169.460938 164.167969 179.359375 181.648438 217.519531 C 181.648438 217.519531 177.152344 177.785156 127.703125 156.371094 " fill-opacity="1" fill-rule="nonzero"/><g clip-path="url(#1cc12b3446)"><path fill="#87ceeb" d="M 136.992188 149.289062 L 131.304688 161.691406 C 131.304688 161.691406 169.800781 177.253906 181.648438 217.519531 C 181.648438 217.519531 182.875 177.546875 136.992188 149.289062 " fill-opacity="1" fill-rule="nonzero"/></g><g clip-path="url(#e285f03db6)"><path fill="#87ceeb" d="M 186.550781 222.613281 C 182.089844 222.613281 178.304688 219.804688 176.917969 215.890625 C 176.914062 216.007812 176.90625 216.125 176.90625 216.246094 C 176.90625 221.472656 181.222656 225.707031 186.550781 225.707031 C 191.875 225.707031 196.191406 221.472656 196.191406 216.246094 C 196.191406 216.125 196.1875 216.007812 196.183594 215.890625 C 194.796875 219.804688 191.007812 222.613281 186.550781 222.613281 " fill-opacity="1" fill-rule="nonzero"/></g><g clip-path="url(#b01c54efcb)"><g clip-path="url(#360e8edbb4)"><path fill="#483d8b" d="M 173.246094 196.378906 L 198.777344 196.378906 L 198.777344 221.910156 L 173.246094 221.910156 Z M 173.246094 196.378906 " fill-opacity="1" fill-rule="nonzero"/></g></g><g fill="#87ceeb" fill-opacity="1"><g transform="translate(152.752773, 323.092275)"><g><path d="M 9.734375 -7.203125 C 10.546875 -7.023438 11.195312 -6.617188 11.6875 -5.984375 C 12.1875 -5.359375 12.4375 -4.632812 12.4375 -3.8125 C 12.4375 -2.644531 12.023438 -1.71875 11.203125 -1.03125 C 10.390625 -0.34375 9.25 0 7.78125 0 L 1.234375 0 L 1.234375 -14.046875 L 7.5625 -14.046875 C 8.988281 -14.046875 10.101562 -13.71875 10.90625 -13.0625 C 11.71875 -12.40625 12.125 -11.519531 12.125 -10.40625 C 12.125 -9.570312 11.90625 -8.878906 11.46875 -8.328125 C 11.03125 -7.785156 10.453125 -7.410156 9.734375 -7.203125 Z M 4.65625 -8.359375 L 6.90625 -8.359375 C 7.457031 -8.359375 7.882812 -8.476562 8.1875 -8.71875 C 8.488281 -8.96875 8.640625 -9.332031 8.640625 -9.8125 C 8.640625 -10.300781 8.488281 -10.671875 8.1875 -10.921875 C 7.882812 -11.171875 7.457031 -11.296875 6.90625 -11.296875 L 4.65625 -11.296875 Z M 7.1875 -2.765625 C 7.757812 -2.765625 8.203125 -2.894531 8.515625 -3.15625 C 8.828125 -3.414062 8.984375 -3.789062 8.984375 -4.28125 C 8.984375 -4.769531 8.816406 -5.15625 8.484375 -5.4375 C 8.160156 -5.71875 7.710938 -5.859375 7.140625 -5.859375 L 4.65625 -5.859375 L 4.65625 -2.765625 Z M 7.1875 -2.765625 "/></g></g></g><g fill="#87ceeb" fill-opacity="1"><g transform="translate(169.207532, 323.092275)"><g><path d="M 9.984375 -2.484375 L 4.734375 -2.484375 L 3.90625 0 L 0.3125 0 L 5.40625 -14.046875 L 9.359375 -14.046875 L 14.4375 0 L 10.8125 0 Z M 9.09375 -5.125 L 7.359375 -10.265625 L 5.640625 -5.125 Z M 9.09375 -5.125 "/></g></g></g><g fill="#87ceeb" fill-opacity="1"><g transform="translate(187.221674, 323.092275)"><g><path d="M 8.40625 0 L 5.484375 -5.296875 L 4.65625 -5.296875 L 4.65625 0 L 1.234375 0 L 1.234375 -14.046875 L 6.984375 -14.046875 C 8.085938 -14.046875 9.03125 -13.847656 9.8125 -13.453125 C 10.59375 -13.066406 11.175781 -12.535156 11.5625 -11.859375 C 11.945312 -11.191406 12.140625 -10.445312 12.140625 -9.625 C 12.140625 -8.6875 11.875 -7.847656 11.34375 -7.109375 C 10.820312 -6.378906 10.046875 -5.863281 9.015625 -5.5625 L 12.265625 0 Z M 4.65625 -7.71875 L 6.78125 -7.71875 C 7.40625 -7.71875 7.875 -7.867188 8.1875 -8.171875 C 8.5 -8.484375 8.65625 -8.921875 8.65625 -9.484375 C 8.65625 -10.015625 8.5 -10.429688 8.1875 -10.734375 C 7.875 -11.046875 7.40625 -11.203125 6.78125 -11.203125 L 4.65625 -11.203125 Z M 4.65625 -7.71875 "/></g></g></g><g fill="#87ceeb" fill-opacity="1"><g transform="translate(203.536482, 323.092275)"><g><path d="M 7.875 0.140625 C 6.5625 0.140625 5.351562 -0.164062 4.25 -0.78125 C 3.144531 -1.394531 2.269531 -2.25 1.625 -3.34375 C 0.976562 -4.445312 0.65625 -5.6875 0.65625 -7.0625 C 0.65625 -8.4375 0.976562 -9.671875 1.625 -10.765625 C 2.269531 -11.859375 3.144531 -12.707031 4.25 -13.3125 C 5.351562 -13.925781 6.5625 -14.234375 7.875 -14.234375 C 9.195312 -14.234375 10.40625 -13.925781 11.5 -13.3125 C 12.601562 -12.707031 13.472656 -11.859375 14.109375 -10.765625 C 14.742188 -9.671875 15.0625 -8.4375 15.0625 -7.0625 C 15.0625 -5.6875 14.738281 -4.445312 14.09375 -3.34375 C 13.457031 -2.25 12.59375 -1.394531 11.5 -0.78125 C 10.40625 -0.164062 9.195312 0.140625 7.875 0.140625 Z M 7.875 -2.984375 C 9 -2.984375 9.894531 -3.351562 10.5625 -4.09375 C 11.238281 -4.84375 11.578125 -5.832031 11.578125 -7.0625 C 11.578125 -8.300781 11.238281 -9.289062 10.5625 -10.03125 C 9.894531 -10.769531 9 -11.140625 7.875 -11.140625 C 6.75 -11.140625 5.847656 -10.769531 5.171875 -10.03125 C 4.492188 -9.300781 4.15625 -8.3125 4.15625 -7.0625 C 4.15625 -5.820312 4.492188 -4.832031 5.171875 -4.09375 C 5.847656 -3.351562 6.75 -2.984375 7.875 -2.984375 Z M 7.875 -2.984375 "/></g></g></g></svg>