<svg width="24" height="24" viewBox="0 0 24 24" fill="none" xmlns="http://www.w3.org/2000/svg">
<path fill-rule="evenodd" clip-rule="evenodd" d="M2 12C2 11.4477 2.44772 11 3 11H12.5858L10.2929 8.70711C9.90237 8.31658 9.90237 7.68342 10.2929 7.29289C10.6834 6.90237 11.3166 6.90237 11.7071 7.29289L15.7071 11.2929C16.0976 11.6834 16.0976 12.3166 15.7071 12.7071L11.7071 16.7071C11.3166 17.0976 10.6834 17.0976 10.2929 16.7071C9.90237 16.3166 9.90237 15.6834 10.2929 15.2929L12.5858 13H3C2.44772 13 2 12.5523 2 12Z" fill="black"/>
<path opacity="0.3" d="M10 18.8292V21C10 21.5523 10.4477 22 11 22H12C17.5228 22 22 17.5228 22 12C22 6.47715 17.5228 2 12 2H11C10.4477 2 10 2.44772 10 3V5.17083C11.0553 4.79865 12.2772 5.0346 13.1213 5.87868L17.1213 9.87868C18.2929 11.0503 18.2929 12.9497 17.1213 14.1213L13.1213 18.1213C12.2772 18.9654 11.0553 19.2013 10 18.8292Z" fill="black"/>
</svg>
