<svg width="150" height="150" viewBox="0 0 24 24" fill="none" xmlns="http://www.w3.org/2000/svg">
<path opacity="0.3" d="M3 7.8C3 6.11984 3 5.27976 3.32698 4.63803C3.6146 4.07354 4.07354 3.6146 4.63803 3.32698C5.27976 3 6.11984 3 7.8 3H16.2C17.8802 3 18.7202 3 19.362 3.32698C19.9265 3.6146 20.3854 4.07354 20.673 4.63803C21 5.27976 21 6.11984 21 7.8V16.2C21 17.8802 21 18.7202 20.673 19.362C20.3854 19.9265 19.9265 20.3854 19.362 20.673C18.7202 21 17.8802 21 16.2 21H7.8C6.11984 21 5.27976 21 4.63803 20.673C4.07354 20.3854 3.6146 19.9265 3.32698 19.362C3 18.7202 3 17.8802 3 16.2V7.8Z" fill="#87CEEB"/>
<path fill-rule="evenodd" clip-rule="evenodd" d="M13.7071 8.29289C13.3166 7.90237 12.6834 7.90237 12.2929 8.29289C11.9024 8.68342 11.9024 9.31658 12.2929 9.70711L13.5858 11H8C7.44772 11 7 11.4477 7 12C7 12.5523 7.44772 13 8 13H13.5858L12.2929 14.2929C11.9024 14.6834 11.9024 15.3166 12.2929 15.7071C12.6834 16.0976 13.3166 16.0976 13.7071 15.7071L16.7071 12.7071C17.0976 12.3166 17.0976 11.6834 16.7071 11.2929L13.7071 8.29289Z" fill="#87CEEB"/>
</svg>
