<svg width="24" height="24" viewBox="0 0 24 24" fill="none" xmlns="http://www.w3.org/2000/svg">
<g opacity="0.3">
<path d="M12.9717 3.44085C12.748 3.60063 12.5558 3.79345 12.3993 4.00979C12.267 4.00329 12.1339 4 12 4C7.58172 4 4 7.58172 4 12C4 16.4183 7.58172 20 12 20C16.4183 20 20 16.4183 20 12C20 11.9711 19.9998 11.9421 19.9995 11.9133C20.2905 11.7394 20.5477 11.5055 20.7513 11.2204L21.7593 9.80922C21.9169 10.5143 22 11.2474 22 12C22 17.5228 17.5228 22 12 22C6.47715 22 2 17.5228 2 12C2 6.47715 6.47715 2 12 2C12.8759 2 13.7255 2.11261 14.5351 2.32415L12.9717 3.44085Z" fill="white"/>
<path d="M17.9965 12.2054L16.2234 12.0192L15.9923 12.2503C15.8631 14.3428 14.1251 16 12 16C9.79086 16 8 14.2091 8 12C8 9.87496 9.6571 8.13696 11.7496 8.00771L12.1029 7.65443L11.9607 6.00013C8.66508 6.02126 6 8.6994 6 12C6 15.3137 8.68629 18 12 18C15.245 18 17.8883 15.424 17.9965 12.2054Z" fill="white"/>
</g>
<path d="M17.9036 3.17099C17.8535 3.02046 17.7348 2.90268 17.5839 2.85361C17.433 2.80455 17.2678 2.83001 17.1387 2.92224L14.1342 5.06831C13.9904 5.171 13.9115 5.34195 13.9266 5.51799L14.1752 8.41051L11.2929 11.2927C10.9024 11.6832 10.9024 12.3164 11.2929 12.7069C11.6834 13.0975 12.3166 13.0975 12.7071 12.707L15.4837 9.93048L18.6647 10.2646C18.8438 10.2834 19.0192 10.2045 19.1238 10.0579L21.2699 7.05343C21.3621 6.92432 21.3876 6.75909 21.3385 6.60819C21.2894 6.4573 21.1717 6.33865 21.0211 6.28847L18.683 5.5091L17.9036 3.17099Z" fill="white"/>
</svg>
