<svg width="150" height="150" viewBox="0 0 24 24" fill="none" xmlns="http://www.w3.org/2000/svg">
<path opacity="0.3" d="M14.2428 3.02985C14.7786 3.1638 15.1043 3.70673 14.9704 4.24253L10.9704 20.2425C10.8364 20.7783 10.2935 21.1041 9.7577 20.9701C9.22191 20.8362 8.89615 20.2933 9.03009 19.7575L13.0301 3.75746C13.164 3.22166 13.707 2.8959 14.2428 3.02985Z" fill="white"/>
<path fill-rule="evenodd" clip-rule="evenodd" d="M7.7348 7.32172C8.10941 7.72755 8.0841 8.3602 7.67828 8.73481L4.41526 11.7468L7.73279 15.3196C8.1086 15.7243 8.08516 16.357 7.68045 16.7328C7.27574 17.1086 6.64301 17.0852 6.26721 16.6805L2.26721 12.3728C2.08639 12.178 1.99051 11.9194 2.00074 11.6538C2.01097 11.3883 2.12646 11.1377 2.32172 10.9575L6.32172 7.2652C6.72754 6.8906 7.3602 6.9159 7.7348 7.32172ZM16.2652 7.32172C16.6398 6.9159 17.2725 6.8906 17.6783 7.2652L21.6783 10.9575C21.8735 11.1377 21.989 11.3883 21.9993 11.6538C22.0095 11.9194 21.9136 12.178 21.7328 12.3728L17.7328 16.6805C17.357 17.0852 16.7243 17.1086 16.3195 16.7328C15.9148 16.357 15.8914 15.7243 16.2672 15.3196L19.5847 11.7468L16.3217 8.73481C15.9159 8.3602 15.8906 7.72755 16.2652 7.32172Z" fill="white"/>
</svg>
