<svg width="24" height="24" viewBox="0 0 24 24" fill="none" xmlns="http://www.w3.org/2000/svg">
<path d="M11.5181 3.62378C11.8182 3.45874 12.1818 3.45874 12.4819 3.62378L22.4819 9.12378C22.8015 9.29954 23 9.63531 23 10C23 10.3647 22.8015 10.7005 22.4819 10.8762L19 12.7913V12.5C19 12.2706 18.9532 12.0533 18.8726 11.8544C18.845 11.7864 18.8139 11.7214 18.7799 11.6592C18.5253 11.1938 18.0956 10.8602 17.6732 10.6202C17.2348 10.371 16.7077 10.1682 16.1345 10.0072C14.9859 9.68455 13.5443 9.5 12 9.5C10.4557 9.5 9.01408 9.68455 7.86554 10.0072C7.29229 10.1682 6.76517 10.371 6.32676 10.6202C5.90444 10.8602 5.47465 11.1938 5.22012 11.6592C5.18612 11.7213 5.15496 11.7864 5.12743 11.8544C5.04684 12.0533 5 12.2706 5 12.5V12.7913L3 11.6913V16C3 16.5523 2.55228 17 2 17C1.44772 17 1 16.5523 1 16V10C1 9.63531 1.19853 9.29954 1.51808 9.12378L11.5181 3.62378Z" fill="white"/>
<path d="M15.9264 17.0345C16.4032 17.1934 16.7206 17.3608 16.9007 17.5C16.7206 17.6392 16.4032 17.8066 15.9264 17.9655C14.9676 18.2852 13.5793 18.5 12 18.5C10.4207 18.5 9.03247 18.2852 8.0736 17.9655C7.59687 17.8066 7.27938 17.6392 7.09937 17.5C7.27938 17.3608 7.59687 17.1934 8.0736 17.0345C9.03247 16.7148 10.4207 16.5 12 16.5C13.5793 16.5 14.9676 16.7148 15.9264 17.0345Z" fill="white"/>
<path opacity="0.3" fill-rule="evenodd" clip-rule="evenodd" d="M19 12.5V17.5C19 18.2139 18.5651 18.7348 18.1475 19.0639C17.7186 19.4019 17.16 19.6625 16.5589 19.8629C15.3462 20.2671 13.7344 20.5 12 20.5C10.2656 20.5 8.65384 20.2671 7.44113 19.8629C6.84 19.6625 6.2814 19.4019 5.85254 19.0639C5.43495 18.7348 5 18.2139 5 17.5V12.5C5 12.2706 5.04684 12.0533 5.12743 11.8544C5.15496 11.7864 5.18612 11.7213 5.22012 11.6592C5.47465 11.1938 5.90444 10.8602 6.32676 10.6202C6.76517 10.371 7.29229 10.1682 7.86554 10.0072C9.01408 9.68455 10.4557 9.5 12 9.5C13.5443 9.5 14.9859 9.68455 16.1345 10.0072C16.7077 10.1682 17.2348 10.371 17.6732 10.6202C18.0956 10.8602 18.5253 11.1938 18.7799 11.6592C18.8139 11.7214 18.845 11.7864 18.8726 11.8544C18.9532 12.0533 19 12.2706 19 12.5ZM15.9264 17.0345C16.4032 17.1934 16.7206 17.3608 16.9007 17.5C16.7206 17.6392 16.4032 17.8066 15.9264 17.9655C14.9676 18.2852 13.5793 18.5 12 18.5C10.4207 18.5 9.03247 18.2852 8.0736 17.9655C7.59687 17.8066 7.27938 17.6392 7.09937 17.5C7.27938 17.3608 7.59687 17.1934 8.0736 17.0345C9.03247 16.7148 10.4207 16.5 12 16.5C13.5793 16.5 14.9676 16.7148 15.9264 17.0345Z" fill="white"/>
</svg>
