<svg width="24" height="24" viewBox="0 0 24 24" fill="none" xmlns="http://www.w3.org/2000/svg">
<path opacity="0.3" d="M22 8.5353L15.9515 12.5677C14.8178 13.3242 14.035 13.8466 13.1653 14.055C12.3993 14.2385 11.6009 14.2385 10.8349 14.055C9.9652 13.8466 9.18245 13.3242 8.04872 12.5677L2 8.53516V15.8385C1.99998 16.3656 1.99997 16.8204 2.03057 17.195C2.06287 17.5903 2.13419 17.9835 2.32698 18.3619C2.6146 18.9264 3.07354 19.3853 3.63803 19.673C4.01641 19.8658 4.40963 19.9371 4.80497 19.9694C5.17952 20 5.63425 20 6.16136 19.9999H17.8385C18.3656 20 18.8205 20 19.195 19.9694C19.5904 19.9371 19.9836 19.8658 20.362 19.673C20.9265 19.3853 21.3854 18.9264 21.673 18.3619C21.8658 17.9835 21.9371 17.5903 21.9694 17.195C22 16.8204 22 16.3656 22 15.8385V8.5353Z" fill="#87CEEB"/>
<path d="M17.8382 4H6.16108C5.63394 3.99998 5.17915 3.99997 4.80459 4.03057C4.40925 4.06287 4.01603 4.13419 3.63765 4.32698C3.07316 4.6146 2.61422 5.07354 2.3266 5.63803C2.23085 5.82595 2.16507 6.01752 2.11914 6.2112L9.00434 10.8013C10.3527 11.7003 10.8222 11.9955 11.3006 12.1101C11.7602 12.2202 12.2393 12.2202 12.6988 12.1101C13.1772 11.9955 13.6467 11.7003 14.9951 10.8013L21.8801 6.21132C21.8342 6.0176 21.7684 5.82599 21.6726 5.63803C21.385 5.07354 20.9261 4.6146 20.3616 4.32698C19.9832 4.13419 19.59 4.06287 19.1946 4.03057C18.8201 3.99997 18.3653 3.99998 17.8382 4Z" fill="#87CEEB"/>
</svg>
