<svg width="150" height="150" viewBox="0 0 24 24" fill="none" xmlns="http://www.w3.org/2000/svg">
<path opacity="0.3" fill-rule="evenodd" clip-rule="evenodd" d="M16.8385 2H7.16146C6.63433 1.99998 6.17954 1.99997 5.80497 2.03057C5.40963 2.06287 5.01641 2.13419 4.63803 2.32698C4.07354 2.6146 3.6146 3.07354 3.32698 3.63803C3.13419 4.01641 3.06287 4.40963 3.03057 4.80497C2.99997 5.17954 2.99998 5.63429 3 6.16142V17.8385C2.99998 18.3657 2.99997 18.8205 3.03057 19.195C3.06287 19.5904 3.13419 19.9836 3.32698 20.362C3.6146 20.9265 4.07355 21.3854 4.63803 21.673C5.01641 21.8658 5.40963 21.9371 5.80497 21.9694C6.17954 22 6.6343 22 7.16144 22H16.8386C17.3657 22 17.8205 22 18.195 21.9694C18.5904 21.9371 18.9836 21.8658 19.362 21.673C19.9265 21.3854 20.3854 20.9265 20.673 20.362C20.8658 19.9836 20.9371 19.5904 20.9694 19.195C21 18.8205 21 18.3657 21 17.8386V6.16144C21 5.6343 21 5.17954 20.9694 4.80497C20.9371 4.40963 20.8658 4.01641 20.673 3.63803C20.3854 3.07354 19.9265 2.6146 19.362 2.32698C18.9836 2.13419 18.5904 2.06287 18.195 2.03057C17.8205 1.99997 17.3657 1.99998 16.8385 2Z" fill="white"/>
<path fill-rule="evenodd" clip-rule="evenodd" d="M7 6C6.44772 6 6 6.44772 6 7C6 7.55228 6.44772 8 7 8H11C11.5523 8 12 7.55228 12 7C12 6.44772 11.5523 6 11 6H7ZM7 10C6.44772 10 6 10.4477 6 11C6 11.5523 6.44772 12 7 12H17C17.5523 12 18 11.5523 18 11C18 10.4477 17.5523 10 17 10H7ZM10.7071 14.2929C11.0976 14.6834 11.0976 15.3166 10.7071 15.7071L8.70711 17.7071C8.31658 18.0976 7.68342 18.0976 7.29289 17.7071L6.29289 16.7071C5.90237 16.3166 5.90237 15.6834 6.29289 15.2929C6.68342 14.9024 7.31658 14.9024 7.70711 15.2929L8 15.5858L9.29289 14.2929C9.68342 13.9024 10.3166 13.9024 10.7071 14.2929ZM14 14C13.4477 14 13 14.4477 13 15C13 15.5523 13.4477 16 14 16H17C17.5523 16 18 15.5523 18 15C18 14.4477 17.5523 14 17 14H14Z" fill="white"/>
</svg>
