<svg width="150" height="150" viewBox="0 0 24 24" fill="none" xmlns="http://www.w3.org/2000/svg">
<path opacity="0.3" d="M12 2C9.23858 2 7 4.23858 7 7C7 9.76142 9.23858 12 12 12C14.7614 12 17 9.76142 17 7C17 4.23858 14.7614 2 12 2Z" fill="#87CEEB"/>
<path fill-rule="evenodd" clip-rule="evenodd" d="M8.68414 13L8.59006 13C8.04618 12.9998 7.64297 12.9997 7.28748 13.064C5.64594 13.3612 4.3612 14.6459 4.06402 16.2875C3.99967 16.643 3.99982 17.0462 4.00002 17.5901L4.00004 19.4319C4.00001 19.6843 3.99998 19.9301 4.01699 20.1383C4.03567 20.3669 4.07973 20.6366 4.21803 20.908C4.40978 21.2844 4.71574 21.5903 5.09206 21.7821C5.36349 21.9204 5.63322 21.9644 5.86182 21.9831C6.06994 22.0001 6.31568 22.0001 6.56801 22H17.432C17.6843 22.0001 17.9302 22.0001 18.1383 21.9831C18.3669 21.9644 18.6366 21.9204 18.908 21.7821C19.2843 21.5903 19.5903 21.2844 19.7821 20.908C19.9204 20.6366 19.9644 20.3669 19.9831 20.1383C20.0001 19.9301 20.0001 19.6843 20 19.4319L20.0001 17.5854C20.0003 17.0458 20.0004 16.6458 19.9371 16.293C19.6415 14.647 18.3531 13.3586 16.7071 13.063C16.3543 12.9997 15.9543 12.9998 15.4147 13L15.3213 13C15.1243 13 14.9317 13.0582 14.7676 13.1673C13.9768 13.6931 13.0244 14 12 14C10.9767 14 10.0294 13.6937 9.23782 13.1673C9.07376 13.0582 8.88115 13 8.68414 13Z" fill="#87CEEB"/>
</svg>
