<svg width="24" height="24" viewBox="0 0 24 24" fill="none" xmlns="http://www.w3.org/2000/svg">
<path opacity="0.3" d="M12 20C12.5523 20 13 19.5523 13 19C13 18.4477 12.5523 18 12 18C11.4477 18 11 18.4477 11 19C11 19.5523 11.4477 20 12 20Z" fill="#483D8B"/>
<path d="M9.16257 8.02252C9.56836 6.84425 10.6869 6 12 6C13.6569 6 15 7.34315 15 9C15 10.2408 14.2465 11.3079 13.1682 11.7643L13.1499 11.7721C12.795 11.9223 12.5043 12.0453 12.2872 12.1462C12.1065 12.2301 11.8341 12.3595 11.6345 12.546C11.5551 12.6202 11.4315 12.7366 11.3249 12.8974C11.2183 13.0582 11.1594 13.2174 11.122 13.3194C11.0384 13.5477 11.0179 13.7758 11.0089 13.9506C11 14.1256 11 14.34 11 14.5767L11 16C11 16.5523 11.4478 17 12 17C12.5523 17 13 16.5523 13 16L13 14.6C13 14.3325 13.0003 14.1703 13.0063 14.0527C13.007 14.0399 13.0077 14.0285 13.0084 14.0186C13.0386 14.0033 13.0782 13.984 13.1296 13.9601C13.3116 13.8756 13.5702 13.766 13.9478 13.6061C15.7397 12.8476 17 11.0721 17 9C17 6.23858 14.7614 4 12 4C9.80733 4 7.94675 5.41082 7.27157 7.37126C7.09173 7.89345 7.36926 8.46255 7.89144 8.64239C8.41362 8.82223 8.98273 8.54471 9.16257 8.02252Z" fill="#483D8B"/>
</svg>
