<svg width="24" height="24" viewBox="0 0 24 24" fill="none" xmlns="http://www.w3.org/2000/svg">
<path opacity="0.3" fill-rule="evenodd" clip-rule="evenodd" d="M20.0002 12.0002C20.0002 11.425 19.9394 10.8631 19.8235 10.3209L20.8978 8.4304C21.0642 8.13761 21.0721 7.78072 20.9187 7.4809C20.7516 7.15419 20.5649 6.83364 20.3586 6.52075C20.1523 6.20786 19.9312 5.91006 19.6968 5.62774C19.4816 5.36866 19.1505 5.23527 18.8158 5.27286L16.6855 5.51214C16.1303 5.11014 15.5237 4.7801 14.8739 4.53075L13.8911 2.60108C13.7382 2.30099 13.4446 2.09799 13.1098 2.06098C12.7451 2.02066 12.3748 2 12 2C11.6252 2 11.2548 2.02066 10.8901 2.06098C10.5554 2.09799 10.2617 2.30099 10.1089 2.60108L9.12504 4.53276C8.47646 4.78294 7.87307 5.1144 7.3213 5.51462L5.16607 5.27255C4.8314 5.23496 4.50029 5.36835 4.28514 5.62743C4.05069 5.90975 3.82958 6.20755 3.62327 6.52044C3.41696 6.83333 3.23035 7.15388 3.06323 7.48059C2.90983 7.78046 2.9177 8.1374 3.08416 8.43022L4.17208 10.3439C4.05935 10.879 4.00021 11.4332 4.00021 12.0002C4.00021 12.5539 4.05589 13.0998 4.16396 13.6269L3.08371 15.5277C2.91732 15.8205 2.90947 16.1774 3.06284 16.4772C3.22997 16.8039 3.41658 17.1245 3.62289 17.4374C3.8292 17.7503 4.05031 18.0481 4.28476 18.3304C4.49983 18.5894 4.83079 18.7228 5.16535 18.6853L7.26662 18.45C7.83277 18.8661 8.45612 19.2098 9.12297 19.4669L10.1095 21.3997C10.2625 21.6993 10.5559 21.902 10.8903 21.939C11.2551 21.9793 11.6254 22 12.0002 22C12.375 22 12.7453 21.9793 13.1101 21.939C13.4448 21.902 13.7385 21.699 13.8913 21.3989L14.8748 19.4679C15.5411 19.2113 16.164 18.8683 16.7298 18.453L18.8173 18.6857C19.1517 18.723 19.4824 18.5896 19.6974 18.3308C19.9318 18.0485 20.1529 17.7506 20.3593 17.4378C20.5656 17.1249 20.7522 16.8043 20.9193 16.4776C21.0727 16.1778 21.0648 15.8209 20.8984 15.5281L19.8301 13.6482C19.9417 13.1156 20.0002 12.5642 20.0002 12.0002ZM12 16C14.2091 16 16 14.2091 16 12C16 9.79086 14.2091 8 12 8C9.79086 8 8 9.79086 8 12C8 14.2091 9.79086 16 12 16Z" fill="white"/>
<circle cx="12" cy="12" r="4" fill="white"/>
</svg>
