<svg xmlns="http://www.w3.org/2000/svg" xmlns:xlink="http://www.w3.org/1999/xlink" width="500" zoomAndPan="magnify" viewBox="0 0 375 374.999991" height="500" preserveAspectRatio="xMidYMid meet" version="1.0"><defs><clipPath id="0e4a8d52fe"><path d="M 143.148438 121.480469 L 230.519531 121.480469 L 230.519531 287.359375 L 143.148438 287.359375 Z M 143.148438 121.480469 " clip-rule="nonzero"/></clipPath><clipPath id="765f17448a"><path d="M 136.675781 114.730469 L 237 114.730469 L 237 295.480469 L 136.675781 295.480469 Z M 136.675781 114.730469 " clip-rule="nonzero"/></clipPath><clipPath id="735fda1cea"><path d="M 179 86 L 224.296875 86 L 224.296875 135 L 179 135 Z M 179 86 " clip-rule="nonzero"/></clipPath><clipPath id="b9bb611503"><path d="M 96.046875 79.515625 L 210 79.515625 L 210 122 L 96.046875 122 Z M 96.046875 79.515625 " clip-rule="nonzero"/></clipPath><clipPath id="ddbd9afb97"><path d="M 191.183594 173.210938 L 264.851562 173.210938 L 264.851562 219.660156 L 191.183594 219.660156 Z M 191.183594 173.210938 " clip-rule="nonzero"/></clipPath><clipPath id="f8fc8752fa"><path d="M 191 146.886719 L 245 146.886719 L 245 220 L 191 220 Z M 191 146.886719 " clip-rule="nonzero"/></clipPath><clipPath id="2d5b8f9697"><path d="M 108.734375 173 L 183 173 L 183 220 L 108.734375 220 Z M 108.734375 173 " clip-rule="nonzero"/></clipPath><clipPath id="7a96f0e1d5"><path d="M 128 146.886719 L 183 146.886719 L 183 220 L 128 220 Z M 128 146.886719 " clip-rule="nonzero"/></clipPath><clipPath id="72a4da3634"><path d="M 177 217.492188 L 197.6875 217.492188 L 197.6875 228.109375 L 177 228.109375 Z M 177 217.492188 " clip-rule="nonzero"/></clipPath><clipPath id="64a0cec79c"><path d="M 173.265625 196.9375 L 200.402344 196.9375 L 200.402344 224.074219 L 173.265625 224.074219 Z M 173.265625 196.9375 " clip-rule="nonzero"/></clipPath><clipPath id="4176126266"><path d="M 186.835938 196.9375 C 179.339844 196.9375 173.265625 203.011719 173.265625 210.507812 C 173.265625 218 179.339844 224.074219 186.835938 224.074219 C 194.328125 224.074219 200.402344 218 200.402344 210.507812 C 200.402344 203.011719 194.328125 196.9375 186.835938 196.9375 Z M 186.835938 196.9375 " clip-rule="nonzero"/></clipPath></defs><g clip-path="url(#0e4a8d52fe)"><path fill="#483d8b" d="M 143.148438 121.480469 L 230.519531 121.480469 L 230.519531 287.359375 L 143.148438 287.359375 Z M 143.148438 121.480469 " fill-opacity="1" fill-rule="nonzero"/></g><g clip-path="url(#765f17448a)"><path fill="#87ceeb" d="M 228.390625 258.125 L 145.273438 258.125 L 145.273438 136.316406 C 145.273438 129.207031 151.058594 123.421875 158.171875 123.421875 L 215.492188 123.421875 C 222.605469 123.421875 228.390625 129.207031 228.390625 136.316406 Z M 228.390625 273.890625 C 228.390625 281.003906 222.605469 286.785156 215.492188 286.785156 L 158.171875 286.785156 C 151.058594 286.785156 145.273438 281.003906 145.273438 273.890625 L 145.273438 266.722656 L 228.390625 266.722656 Z M 215.492188 114.824219 L 158.171875 114.824219 C 146.316406 114.824219 136.675781 124.464844 136.675781 136.316406 L 136.675781 273.890625 C 136.675781 285.742188 146.316406 295.386719 158.171875 295.386719 L 215.492188 295.386719 C 227.34375 295.386719 236.988281 285.742188 236.988281 273.890625 L 236.988281 136.316406 C 236.988281 124.464844 227.34375 114.824219 215.492188 114.824219 " fill-opacity="1" fill-rule="nonzero"/></g><path fill="#87ceeb" d="M 198.296875 132.019531 L 175.367188 132.019531 C 172.992188 132.019531 171.070312 133.941406 171.070312 136.316406 C 171.070312 138.695312 172.992188 140.617188 175.367188 140.617188 L 198.296875 140.617188 C 200.671875 140.617188 202.59375 138.695312 202.59375 136.316406 C 202.59375 133.941406 200.671875 132.019531 198.296875 132.019531 " fill-opacity="1" fill-rule="nonzero"/><g clip-path="url(#735fda1cea)"><path fill="#483d8b" d="M 179.90625 87.714844 C 180.019531 87.242188 180.128906 86.742188 180.324219 86.328125 L 180.324219 86.355469 C 180.324219 86.355469 180.851562 86.632812 181.769531 87.105469 C 181.878906 87.160156 182.019531 87.214844 182.128906 87.300781 C 182.269531 87.382812 182.378906 87.4375 182.519531 87.523438 C 182.796875 87.6875 183.101562 87.828125 183.410156 88.023438 C 183.574219 88.105469 183.742188 88.1875 183.910156 88.300781 C 184.074219 88.410156 184.242188 88.496094 184.410156 88.605469 C 184.769531 88.800781 185.132812 89.023438 185.519531 89.246094 C 187.050781 90.191406 188.800781 91.300781 190.609375 92.609375 C 192.414062 93.914062 194.304688 95.386719 196.109375 96.917969 C 197.917969 98.472656 199.640625 100.085938 201.226562 101.667969 C 202.78125 103.253906 204.171875 104.808594 205.339844 106.144531 C 205.617188 106.476562 205.894531 106.8125 206.171875 107.117188 C 206.3125 107.285156 206.421875 107.421875 206.5625 107.5625 C 206.671875 107.699219 206.8125 107.867188 206.921875 108.007812 C 207.367188 108.5625 207.785156 109.0625 208.089844 109.480469 C 208.394531 109.898438 208.644531 110.230469 208.8125 110.425781 C 208.980469 110.648438 209.0625 110.757812 209.0625 110.757812 C 209.507812 110.507812 210.007812 110.453125 210.507812 110.5625 C 210.757812 110.621094 210.980469 110.703125 211.203125 110.839844 C 211.425781 110.980469 211.621094 111.148438 211.757812 111.371094 C 211.757812 111.371094 211.925781 111.59375 212.148438 111.925781 C 212.257812 112.09375 212.398438 112.285156 212.539062 112.507812 C 212.621094 112.621094 212.675781 112.730469 212.761719 112.84375 C 212.84375 112.953125 212.898438 113.066406 212.980469 113.175781 C 213.289062 113.648438 213.59375 114.09375 213.816406 114.453125 C 214.039062 114.816406 214.175781 115.039062 214.175781 115.039062 C 214.234375 115.121094 214.261719 115.207031 214.289062 115.261719 C 215.539062 115.566406 216.652344 116.34375 217.597656 117.375 C 217.847656 117.625 218.070312 117.902344 218.289062 118.207031 C 218.511719 118.484375 218.734375 118.789062 218.929688 119.097656 C 219.125 119.402344 219.320312 119.734375 219.515625 120.070312 C 219.597656 120.234375 219.707031 120.402344 219.792969 120.570312 C 219.875 120.738281 219.957031 120.902344 220.070312 121.070312 C 220.238281 121.402344 220.429688 121.765625 220.597656 122.097656 L 220.738281 122.347656 L 220.847656 122.597656 C 220.929688 122.765625 221.015625 122.960938 221.097656 123.125 C 221.265625 123.488281 221.402344 123.820312 221.570312 124.15625 C 221.710938 124.488281 221.875 124.851562 222.015625 125.183594 C 222.15625 125.515625 222.320312 125.851562 222.460938 126.15625 C 222.597656 126.460938 222.738281 126.796875 222.90625 127.074219 C 223.070312 127.351562 223.210938 127.65625 223.347656 127.933594 C 223.515625 128.214844 223.65625 128.464844 223.820312 128.714844 C 224.265625 129.378906 224.324219 129.851562 224.128906 129.992188 C 223.933594 130.132812 223.542969 129.910156 223.097656 129.242188 C 222.960938 129.046875 222.820312 128.796875 222.710938 128.492188 C 222.570312 128.183594 222.433594 127.878906 222.265625 127.519531 C 222.125 127.15625 221.960938 126.769531 221.820312 126.351562 C 221.652344 125.960938 221.515625 125.546875 221.347656 125.128906 C 221.265625 124.90625 221.179688 124.710938 221.125 124.515625 C 221.042969 124.320312 220.960938 124.101562 220.875 123.90625 C 220.710938 123.515625 220.570312 123.125 220.402344 122.738281 C 220.097656 122.015625 219.792969 121.402344 219.542969 121.015625 C 219.375 120.765625 219.207031 120.515625 219.042969 120.265625 C 218.875 120.015625 218.707031 119.792969 218.511719 119.570312 C 218.179688 119.125 217.789062 118.707031 217.375 118.347656 C 216.566406 117.625 215.652344 117.125 214.511719 116.984375 C 215.261719 117.484375 216.039062 117.929688 216.789062 118.457031 C 217.152344 118.734375 217.511719 119.011719 217.847656 119.320312 C 218.179688 119.625 218.484375 119.984375 218.761719 120.347656 C 219.125 120.820312 219.515625 121.515625 219.902344 122.320312 C 220.097656 122.710938 220.292969 123.125 220.488281 123.570312 C 220.570312 123.792969 220.679688 124.015625 220.765625 124.238281 C 220.820312 124.351562 220.847656 124.460938 220.902344 124.570312 C 220.960938 124.683594 220.988281 124.792969 221.042969 124.90625 C 221.210938 125.351562 221.402344 125.796875 221.570312 126.238281 C 221.625 126.351562 221.652344 126.460938 221.710938 126.574219 C 221.738281 126.683594 221.792969 126.796875 221.820312 126.90625 C 221.902344 127.128906 221.988281 127.324219 222.070312 127.546875 C 222.15625 127.742188 222.238281 127.933594 222.292969 128.128906 C 222.375 128.324219 222.460938 128.492188 222.515625 128.6875 C 222.65625 129.046875 222.792969 129.351562 222.933594 129.628906 C 223.601562 130.964844 222.347656 130.492188 221.933594 129.628906 C 221.875 129.546875 221.710938 129.269531 221.515625 128.992188 C 221.347656 128.714844 221.152344 128.464844 221.097656 128.378906 C 221.125 128.546875 221.179688 128.714844 221.210938 128.878906 C 221.292969 129.351562 220.792969 129.074219 220.542969 128.769531 C 220.710938 129.160156 220.902344 129.574219 221.097656 129.9375 C 221.292969 130.324219 221.542969 130.6875 221.792969 131.046875 C 222.183594 131.578125 222.15625 131.964844 221.988281 132.078125 C 221.792969 132.214844 221.433594 132.078125 221.042969 131.578125 C 220.988281 131.492188 220.902344 131.382812 220.847656 131.269531 C 220.765625 131.160156 220.710938 131.046875 220.625 130.9375 C 220.488281 130.6875 220.320312 130.4375 220.179688 130.160156 C 220.097656 130.019531 220.042969 129.882812 219.957031 129.714844 C 219.929688 129.628906 219.875 129.574219 219.847656 129.492188 C 219.820312 129.410156 219.765625 129.351562 219.734375 129.269531 C 219.570312 128.964844 219.429688 128.65625 219.292969 128.324219 C 219.011719 127.683594 218.679688 127.074219 218.429688 126.460938 C 218.179688 125.878906 217.929688 125.351562 217.761719 124.933594 C 217.652344 124.65625 217.539062 124.378906 217.402344 124.101562 C 217.289062 123.820312 217.152344 123.570312 217.011719 123.292969 C 216.734375 122.765625 216.429688 122.265625 215.984375 121.820312 C 215.761719 121.597656 215.539062 121.375 215.289062 121.152344 C 215.511719 121.488281 215.734375 121.820312 215.957031 122.183594 L 216.121094 122.433594 C 216.179688 122.515625 216.234375 122.597656 216.261719 122.710938 C 216.375 122.875 216.457031 123.070312 216.566406 123.238281 C 216.789062 123.65625 217.097656 124.238281 217.402344 124.90625 C 217.566406 125.238281 217.734375 125.601562 217.902344 125.960938 C 218.070312 126.324219 218.234375 126.710938 218.402344 127.074219 C 218.761719 127.824219 219.097656 128.574219 219.429688 129.214844 C 219.597656 129.546875 219.765625 129.851562 219.902344 130.132812 C 220.042969 130.410156 220.207031 130.632812 220.347656 130.824219 C 220.488281 131.019531 220.570312 131.1875 220.570312 131.296875 C 220.597656 131.4375 220.570312 131.519531 220.488281 131.546875 C 220.375 131.632812 220.097656 131.519531 219.820312 131.160156 C 219.652344 130.910156 219.457031 130.632812 219.265625 130.296875 C 219.179688 130.132812 219.070312 129.964844 218.984375 129.796875 C 218.875 129.628906 218.792969 129.4375 218.679688 129.242188 C 218.484375 128.851562 218.261719 128.464844 218.070312 128.046875 C 217.847656 127.628906 217.652344 127.210938 217.429688 126.796875 C 217.234375 126.378906 217.011719 125.933594 216.789062 125.515625 C 216.679688 125.324219 216.59375 125.101562 216.484375 124.90625 C 216.429688 124.792969 216.375 124.710938 216.34375 124.601562 C 216.289062 124.488281 216.234375 124.40625 216.207031 124.320312 C 216.011719 123.933594 215.816406 123.570312 215.652344 123.238281 C 215.566406 123.070312 215.484375 122.90625 215.398438 122.765625 C 215.316406 122.625 215.234375 122.488281 215.179688 122.347656 C 215.261719 122.515625 215.34375 122.65625 215.429688 122.820312 C 215.566406 123.070312 215.707031 123.378906 215.871094 123.710938 C 216.039062 124.042969 216.207031 124.40625 216.375 124.792969 C 216.707031 125.574219 217.097656 126.40625 217.484375 127.269531 C 217.566406 127.492188 217.679688 127.683594 217.761719 127.90625 C 217.820312 128.019531 217.875 128.101562 217.902344 128.214844 C 217.957031 128.324219 217.984375 128.40625 218.039062 128.519531 C 218.234375 128.9375 218.429688 129.324219 218.625 129.6875 C 218.734375 129.882812 218.820312 130.046875 218.929688 130.214844 C 219.011719 130.382812 219.125 130.546875 219.207031 130.6875 C 219.402344 130.992188 219.597656 131.269531 219.792969 131.464844 C 220.152344 131.855469 220.207031 132.382812 220.097656 132.6875 C 219.988281 132.992188 219.652344 133.078125 219.179688 132.550781 C 218.761719 132.078125 218.320312 131.410156 217.902344 130.6875 C 217.707031 130.324219 217.484375 129.9375 217.261719 129.519531 C 217.152344 129.324219 217.066406 129.101562 216.957031 128.90625 C 216.902344 128.796875 216.84375 128.714844 216.816406 128.601562 C 216.761719 128.492188 216.707031 128.40625 216.652344 128.296875 C 216.457031 127.878906 216.234375 127.460938 216.066406 127.046875 C 215.871094 126.628906 215.679688 126.238281 215.511719 125.851562 C 215.429688 125.65625 215.34375 125.460938 215.261719 125.292969 C 215.179688 125.101562 215.09375 124.933594 215.011719 124.765625 C 214.84375 124.433594 214.675781 124.101562 214.566406 123.820312 C 214.484375 123.65625 214.425781 123.515625 214.34375 123.347656 C 214.261719 123.210938 214.175781 123.042969 214.09375 122.90625 C 213.925781 122.597656 213.789062 122.292969 213.621094 122.015625 C 213.484375 121.710938 213.316406 121.429688 213.148438 121.125 C 212.980469 120.820312 212.84375 120.515625 212.703125 120.234375 C 213.425781 122.210938 214.539062 124.601562 215.707031 126.933594 C 215.984375 127.519531 216.289062 128.101562 216.59375 128.6875 C 216.875 129.269531 217.179688 129.824219 217.484375 130.382812 C 217.761719 130.9375 218.039062 131.464844 218.347656 131.964844 C 218.484375 132.214844 218.625 132.464844 218.761719 132.714844 C 218.902344 132.964844 219.042969 133.1875 219.179688 133.410156 C 219.542969 134.023438 218.929688 133.746094 218.707031 133.382812 C 218.484375 132.992188 218.261719 132.632812 218.039062 132.242188 C 217.820312 131.855469 217.597656 131.464844 217.375 131.074219 C 217.566406 131.546875 217.707031 131.910156 217.847656 132.242188 C 217.929688 132.410156 217.984375 132.578125 218.070312 132.773438 C 218.152344 132.964844 218.261719 133.160156 218.402344 133.382812 C 219.292969 134.910156 217.875 134.078125 217.375 133.242188 C 217.316406 133.132812 217.234375 133.023438 217.179688 132.910156 C 217.152344 132.855469 217.125 132.800781 217.097656 132.742188 C 217.066406 132.6875 217.039062 132.632812 216.984375 132.550781 C 216.84375 132.300781 216.707031 132.019531 216.59375 131.742188 C 216.457031 131.464844 216.34375 131.1875 216.207031 130.882812 C 216.066406 130.574219 215.929688 130.296875 215.789062 129.992188 C 215.734375 129.851562 215.652344 129.6875 215.59375 129.546875 C 215.566406 129.464844 215.539062 129.410156 215.484375 129.324219 C 215.457031 129.242188 215.429688 129.1875 215.371094 129.101562 C 215.234375 128.796875 215.09375 128.519531 214.984375 128.242188 C 214.929688 128.101562 214.84375 127.964844 214.789062 127.824219 C 214.734375 127.683594 214.675781 127.546875 214.59375 127.433594 C 214.484375 127.183594 214.34375 126.933594 214.234375 126.710938 C 213.816406 125.851562 213.261719 125.042969 212.761719 124.265625 C 212.480469 123.878906 212.203125 123.488281 211.953125 123.070312 L 211.566406 122.460938 C 211.453125 122.265625 211.316406 122.042969 211.203125 121.847656 C 211.121094 121.679688 211.035156 121.515625 210.953125 121.347656 C 210.925781 121.265625 210.871094 121.179688 210.84375 121.097656 L 210.730469 120.847656 C 210.59375 120.515625 210.453125 120.152344 210.3125 119.792969 C 210.257812 119.625 210.203125 119.429688 210.148438 119.234375 C 210.089844 119.042969 210.035156 118.875 210.007812 118.679688 C 209.925781 118.320312 209.839844 117.929688 209.785156 117.566406 C 209.785156 117.566406 209.675781 117.375 209.453125 117.066406 C 209.257812 116.761719 208.980469 116.371094 208.730469 115.957031 C 208.589844 115.761719 208.453125 115.566406 208.339844 115.371094 C 208.203125 115.175781 208.089844 115.011719 207.980469 114.871094 C 207.785156 114.566406 207.644531 114.371094 207.644531 114.371094 C 207.507812 114.148438 207.394531 113.953125 207.339844 113.703125 C 207.285156 113.480469 207.257812 113.230469 207.285156 112.980469 C 207.339844 112.507812 207.5625 112.035156 207.921875 111.675781 C 207.921875 111.675781 207.839844 111.5625 207.671875 111.34375 C 207.507812 111.121094 207.257812 110.8125 206.949219 110.398438 C 206.644531 109.980469 206.257812 109.507812 205.8125 108.953125 C 205.699219 108.8125 205.589844 108.671875 205.476562 108.535156 C 205.367188 108.394531 205.226562 108.230469 205.117188 108.089844 C 204.867188 107.785156 204.589844 107.480469 204.308594 107.144531 C 203.171875 105.839844 201.835938 104.308594 200.308594 102.78125 C 198.777344 101.226562 197.082031 99.640625 195.332031 98.140625 C 194.886719 97.777344 194.441406 97.390625 194 97.027344 C 193.777344 96.832031 193.554688 96.667969 193.332031 96.472656 C 193.109375 96.277344 192.886719 96.109375 192.664062 95.945312 C 192.21875 95.582031 191.773438 95.25 191.332031 94.914062 C 190.886719 94.582031 190.441406 94.25 189.996094 93.941406 C 188.21875 92.664062 186.523438 91.550781 185.046875 90.636719 C 184.6875 90.414062 184.324219 90.191406 183.964844 89.996094 C 183.796875 89.882812 183.632812 89.800781 183.464844 89.691406 C 183.382812 89.632812 183.296875 89.605469 183.214844 89.550781 C 183.132812 89.496094 183.046875 89.46875 182.992188 89.410156 C 182.378906 89.078125 181.824219 88.773438 181.378906 88.523438 C 180.433594 87.996094 179.90625 87.714844 179.90625 87.714844 Z M 211.703125 119.261719 C 211.757812 119.570312 211.816406 119.875 211.898438 120.179688 C 211.980469 120.488281 212.066406 120.792969 212.148438 121.097656 C 212.257812 121.402344 212.371094 121.679688 212.480469 121.988281 L 212.566406 122.210938 C 212.59375 122.292969 212.621094 122.347656 212.648438 122.433594 C 212.703125 122.570312 212.789062 122.710938 212.871094 122.847656 C 213.039062 123.15625 213.203125 123.460938 213.398438 123.765625 C 213.59375 124.070312 213.761719 124.351562 213.984375 124.65625 C 213.871094 124.433594 213.761719 124.210938 213.675781 123.988281 L 213.59375 123.820312 L 213.34375 123.320312 C 213.148438 122.875 212.953125 122.433594 212.761719 121.988281 C 212.566406 121.542969 212.371094 121.097656 212.203125 120.652344 L 212.066406 120.320312 L 211.925781 119.984375 C 211.871094 119.707031 211.785156 119.484375 211.703125 119.261719 Z M 217.847656 122.402344 C 217.761719 122.210938 217.679688 122.015625 217.566406 121.820312 C 217.484375 121.625 217.375 121.429688 217.261719 121.265625 C 216.957031 120.820312 216.59375 120.515625 216.234375 120.265625 C 215.84375 120.015625 215.429688 119.792969 215.011719 119.511719 C 214.789062 119.375 214.59375 119.207031 214.398438 119.042969 C 214.207031 118.875 214.011719 118.707031 213.816406 118.539062 C 214.234375 119.011719 214.707031 119.457031 215.207031 119.875 C 215.316406 119.984375 215.457031 120.097656 215.566406 120.207031 C 215.679688 120.320312 215.816406 120.429688 215.929688 120.542969 C 216.179688 120.765625 216.402344 120.988281 216.625 121.238281 C 216.789062 121.429688 216.984375 121.652344 217.152344 121.902344 C 217.316406 122.152344 217.511719 122.433594 217.679688 122.738281 C 217.875 123.042969 218.039062 123.347656 218.234375 123.683594 C 218.402344 124.015625 218.570312 124.351562 218.734375 124.710938 C 218.820312 124.878906 218.902344 125.042969 218.984375 125.238281 C 219.011719 125.324219 219.070312 125.40625 219.097656 125.488281 C 219.125 125.574219 219.179688 125.65625 219.207031 125.738281 C 219.347656 126.074219 219.484375 126.433594 219.625 126.738281 C 219.902344 127.378906 220.125 127.992188 220.320312 128.4375 C 220.292969 128.269531 220.238281 128.046875 220.152344 127.824219 C 220.125 127.714844 220.070312 127.574219 220.042969 127.460938 C 220.015625 127.40625 219.988281 127.324219 219.988281 127.269531 C 219.957031 127.210938 219.929688 127.128906 219.902344 127.074219 C 219.707031 126.546875 219.457031 125.960938 219.207031 125.378906 C 218.957031 124.792969 218.679688 124.210938 218.429688 123.710938 C 218.234375 123.183594 218.011719 122.738281 217.847656 122.402344 Z M 213.871094 117.625 C 213.84375 117.652344 213.816406 117.679688 213.789062 117.707031 C 214.011719 117.902344 214.234375 118.066406 214.457031 118.234375 C 214.675781 118.402344 214.898438 118.570312 215.121094 118.707031 C 215.566406 119.011719 215.984375 119.320312 216.402344 119.652344 C 216.511719 119.734375 216.59375 119.820312 216.707031 119.902344 C 216.816406 119.984375 216.902344 120.070312 216.984375 120.152344 C 217.179688 120.320312 217.375 120.515625 217.539062 120.738281 C 217.707031 120.929688 217.902344 121.152344 218.039062 121.402344 C 218.207031 121.652344 218.347656 121.902344 218.484375 122.183594 C 218.597656 122.402344 218.707031 122.625 218.820312 122.875 C 218.929688 123.097656 219.042969 123.347656 219.152344 123.570312 L 219.070312 123.265625 L 218.957031 122.988281 C 218.875 122.792969 218.820312 122.597656 218.734375 122.402344 C 218.570312 122.015625 218.429688 121.625 218.234375 121.265625 C 218.011719 120.847656 217.734375 120.488281 217.429688 120.125 C 217.261719 119.957031 217.097656 119.792969 216.929688 119.625 C 216.761719 119.457031 216.566406 119.320312 216.375 119.179688 C 215.984375 118.902344 215.59375 118.625 215.179688 118.347656 C 214.675781 118.125 214.261719 117.875 213.871094 117.625 Z M 213.871094 117.625 " fill-opacity="1" fill-rule="nonzero"/></g><g clip-path="url(#b9bb611503)"><path fill="#87ceeb" d="M 209.257812 79.515625 C 209.398438 80.460938 209.648438 81.210938 209.148438 81.492188 L 195.917969 89.105469 L 194.609375 89.855469 L 193.75 90.355469 C 193.277344 90.550781 192.859375 90.828125 192.441406 91.136719 L 184.882812 95.472656 L 125.207031 116.875 L 97.578125 121.488281 C 97.023438 121.570312 96.71875 120.847656 96.246094 120.015625 L 146.96875 83.824219 L 146.96875 83.796875 L 147.027344 83.796875 L 147.082031 83.769531 L 147.082031 83.796875 Z M 209.257812 79.515625 " fill-opacity="1" fill-rule="nonzero"/></g><path fill="#483d8b" d="M 183.769531 91.773438 L 186.746094 101.699219 L 190.328125 113.59375 L 176.125 116.039062 C 165.203125 117.902344 154.667969 121.679688 145.050781 127.183594 L 132.238281 134.632812 L 125.652344 117.957031 L 125.207031 116.84375 L 123.84375 113.453125 L 130.542969 109.3125 C 144.21875 100.722656 159.535156 95.136719 175.542969 92.914062 Z M 183.769531 91.773438 " fill-opacity="1" fill-rule="nonzero"/><g clip-path="url(#ddbd9afb97)"><path fill="#87ceeb" d="M 264.851562 173.289062 L 264.851562 187.789062 C 264.851562 187.789062 220.765625 185.761719 191.46875 219.40625 C 191.46875 219.40625 208 180.25 264.851562 173.289062 " fill-opacity="1" fill-rule="nonzero"/></g><path fill="#87ceeb" d="M 257.507812 163.277344 L 259.582031 177.628906 C 259.582031 177.628906 215.65625 181.917969 191.46875 219.40625 C 191.46875 219.40625 202.238281 178.289062 257.507812 163.277344 " fill-opacity="1" fill-rule="nonzero"/><path fill="#87ceeb" d="M 248.808594 154.414062 L 252.910156 168.324219 C 252.910156 168.324219 210.050781 178.847656 191.46875 219.40625 C 191.46875 219.40625 196.25 177.171875 248.808594 154.414062 " fill-opacity="1" fill-rule="nonzero"/><g clip-path="url(#f8fc8752fa)"><path fill="#87ceeb" d="M 238.933594 146.886719 L 244.980469 160.066406 C 244.980469 160.066406 204.0625 176.609375 191.46875 219.40625 C 191.46875 219.40625 190.164062 176.921875 238.933594 146.886719 " fill-opacity="1" fill-rule="nonzero"/></g><g clip-path="url(#2d5b8f9697)"><path fill="#87ceeb" d="M 108.816406 173.289062 L 108.816406 187.789062 C 108.816406 187.789062 152.902344 185.761719 182.199219 219.40625 C 182.199219 219.40625 165.667969 180.25 108.816406 173.289062 " fill-opacity="1" fill-rule="nonzero"/></g><path fill="#87ceeb" d="M 116.160156 163.277344 L 114.085938 177.628906 C 114.085938 177.628906 158.011719 181.917969 182.199219 219.40625 C 182.199219 219.40625 171.429688 178.289062 116.160156 163.277344 " fill-opacity="1" fill-rule="nonzero"/><path fill="#87ceeb" d="M 124.859375 154.414062 L 120.753906 168.324219 C 120.753906 168.324219 163.617188 178.847656 182.199219 219.40625 C 182.199219 219.40625 177.417969 177.171875 124.859375 154.414062 " fill-opacity="1" fill-rule="nonzero"/><g clip-path="url(#7a96f0e1d5)"><path fill="#87ceeb" d="M 134.734375 146.886719 L 128.6875 160.066406 C 128.6875 160.066406 169.605469 176.609375 182.199219 219.40625 C 182.199219 219.40625 183.503906 176.921875 134.734375 146.886719 " fill-opacity="1" fill-rule="nonzero"/></g><g clip-path="url(#72a4da3634)"><path fill="#87ceeb" d="M 187.40625 224.820312 C 182.667969 224.820312 178.640625 221.835938 177.167969 217.679688 C 177.164062 217.800781 177.160156 217.925781 177.160156 218.054688 C 177.160156 223.609375 181.746094 228.109375 187.40625 228.109375 C 193.066406 228.109375 197.65625 223.609375 197.65625 218.054688 C 197.65625 217.925781 197.652344 217.800781 197.644531 217.679688 C 196.175781 221.835938 192.148438 224.820312 187.40625 224.820312 " fill-opacity="1" fill-rule="nonzero"/></g><g clip-path="url(#64a0cec79c)"><g clip-path="url(#4176126266)"><path fill="#483d8b" d="M 173.265625 196.9375 L 200.402344 196.9375 L 200.402344 224.074219 L 173.265625 224.074219 Z M 173.265625 196.9375 " fill-opacity="1" fill-rule="nonzero"/></g></g></svg>